<svg xmlns="http://www.w3.org/2000/svg" data-name="Layer 1" viewBox="0 0 64 64"><path fill="#40A8E2" d="M29.6,2.2,28.4,3.8l1.707,1.28c-12.995.815-23.19,9.937-25.1,22.774l1.978.292C8.764,16.19,17.847,7.953,29.885,7.086L28.4,8.2l1.2,1.6,4-3a1,1,0,0,0,0-1.6Z" class="color000000 svgShape"/><path fill="#40A8E2" d="M37,14a6,6,0,0,0-5,2.69A6,6,0,0,0,21,20c0,.116,0,.232.011.349A5.983,5.983,0,0,0,17,26c0,.116,0,.232.011.349a5.986,5.986,0,0,0,0,11.3C17,37.768,17,37.884,17,38a5.983,5.983,0,0,0,4.011,5.651C21,43.768,21,43.884,21,44a6,6,0,0,0,11,3.31A6,6,0,0,0,43,44c0-.116,0-.232-.011-.349A5.983,5.983,0,0,0,47,38c0-.116,0-.232-.011-.349a5.986,5.986,0,0,0,0-11.3C47,26.232,47,26.116,47,26a5.983,5.983,0,0,0-4.011-5.651C43,20.232,43,20.116,43,20A6.006,6.006,0,0,0,37,14ZM31,29.054c-3.434.338-6,2.386-6,4.946h2c0-1.421,1.749-2.649,4-2.936V44a4,4,0,1,1-7.9-.871,1,1,0,0,0-.145-.772c-.02-.03-.053-.047-.076-.075A6.242,6.242,0,0,0,24,38.932a3.577,3.577,0,0,0-1.061-2.652l-1.387,1.44A1.613,1.613,0,0,1,22,38.932a4.476,4.476,0,0,1-.977,2.533,3.938,3.938,0,0,1-1.92-4.336,1,1,0,0,0-.8-1.2,3.988,3.988,0,0,1,0-7.856c.012,0,.022-.011.035-.014C19.809,28.35,21,30.481,21,33h2c0-3.436-1.683-6.22-3.984-6.861,0-.044-.016-.095-.016-.139a3.988,3.988,0,0,1,3.3-3.928c.012,0,.022-.011.035-.014C23.809,22.35,25,24.481,25,27h2c0-3.436-1.683-6.22-3.984-6.861,0-.044-.016-.095-.016-.139a4,4,0,0,1,8,0ZM45,26c0,.044-.015.094-.016.139C42.683,26.78,41,29.564,41,33h2c0-2.519,1.191-4.65,2.664-4.942.013,0,.023.012.035.014a3.988,3.988,0,0,1,0,7.856,1,1,0,0,0-.8,1.2,3.938,3.938,0,0,1-1.92,4.336A4.476,4.476,0,0,1,42,38.932a1.613,1.613,0,0,1,.448-1.212l-1.387-1.44A3.577,3.577,0,0,0,40,38.932a6.242,6.242,0,0,0,1.118,3.35c-.023.028-.056.045-.076.075a1,1,0,0,0-.145.772A4,4,0,1,1,33,44V39.864c2.309-.632,4-3.42,4-6.864H35c0,2.126-.85,3.976-2,4.682V20a4,4,0,0,1,8,0c0,.044-.015.094-.016.139C38.683,20.78,37,23.564,37,27h2c0-2.519,1.191-4.65,2.664-4.942.013,0,.023.012.035.014A3.988,3.988,0,0,1,45,26Z" class="color000000 svgShape"/><path fill="#40A8E2" d="M34.115 56.914L35.6 55.8l-1.2-1.6-4 3a1 1 0 0 0 0 1.6l4 3 1.2-1.6-1.707-1.28c12.995-.815 23.19-9.937 25.1-22.774l-1.978-.292C55.236 47.81 46.153 56.047 34.115 56.914zM58.92 30.107c-.815-12.995-9.937-23.19-22.773-25.1l-.294 1.978c11.957 1.775 20.194 10.859 21.061 22.9L55.8 28.4l-1.6 1.2 3 4a1 1 0 0 0 1.6 0l3-4-1.6-1.2zM7.086 34.115L8.2 35.6l1.6-1.2-3-4a1.036 1.036 0 0 0-1.6 0l-3 4 1.6 1.2 1.28-1.707c.815 12.995 9.937 23.19 22.773 25.1l.294-1.978C16.19 55.236 7.953 46.152 7.086 34.115z" class="color000000 svgShape"/></svg>