<svg xmlns="http://www.w3.org/2000/svg" viewBox="0 0 32 32"><path d="M13.096 3.002v.002a2.496 2.496 0 0 0-1.602.5A2.495 2.495 0 0 0 10.561 6H8.5a.5.5 0 0 0-.5.5V7H3.5a.5.5 0 0 0-.5.5v23a.5.5 0 0 0 .5.5h19a.5.5 0 0 0 .5-.5v-23a.5.5 0 0 0-.5-.5H18v-.5a.5.5 0 0 0-.5-.5h-2.055a2.493 2.493 0 0 0-2.35-2.998zm-.037 1v.006A1.495 1.495 0 0 1 14.3 6.252a.5.5 0 0 0 .1.62h.001c.008.01.017.013.026.019l.01.01c.005.01.012.01.019.015.013.01.026.016.04.023h.009a.497.497 0 0 0 .244.063H17v.418a.502.502 0 0 0 0 .164V9.42a.502.502 0 0 0 0 .164v.418H9V9.58a.478.478 0 0 0 0-.16V7.58a.478.478 0 0 0 0-.16v-.418h2.25a.5.5 0 0 0 .434-.762.53.53 0 0 0-.04-.094 1.496 1.496 0 0 1 .454-1.841 1.5 1.5 0 0 1 .96-.303zM26.5 7a.5.5 0 0 0-.5.5v1.502h-1.502a.5.5 0 0 0-.498.502v6.002c-.008.674 1.008.674 1 0v-5.502h1v16.498a.5.5 0 0 0 .5.5h.129v1.502a.5.5 0 0 0 .5.5h.371v1.998h1v-1.998h.373a.5.5 0 0 0 .498-.504v-1.498h.129a.5.5 0 0 0 .5-.5V9.264a.51.51 0 0 0 0-.034V7.502a.5.5 0 0 0-.5-.5h-3V7zm.5 1h2v1.002h-2V8zM4 8.004h4v1H5.5a.5.5 0 0 0-.5.5v19a.5.5 0 0 0 .5.5h15a.5.5 0 0 0 .5-.5v-19a.5.5 0 0 0-.5-.5H18v-1h4v22H4v-22zM27 10h2v4.998h-2V10zm-21 .004h2v.5a.5.5 0 0 0 .5.5h9a.5.5 0 0 0 .5-.5v-.5h2v18H6v-18zm4.51 3a.483.483 0 0 0-.344.15L8.51 14.8l-.653-.647c-.472-.489-1.197.24-.705.71l1.004.997a.5.5 0 0 0 .705 0l2.008-1.996a.5.5 0 0 0-.36-.86zm1.947 0c-.666.035-.615 1.033.05 1h3c.677.01.677-1.01 0-1h-3.05zm.012 2c-.668.033-.617 1.035.05 1h5.961c.677.01.677-1.01 0-1H12.47zM27 15.998h2v10h-2v-10zm-16.49 2.006a.483.483 0 0 0-.344.15L8.51 19.8l-.653-.647c-.472-.489-1.197.24-.705.71l1.004.997a.5.5 0 0 0 .705 0l2.008-1.996a.5.5 0 0 0-.36-.86zm1.947 0c-.668.033-.617 1.035.05 1h3c.677.01.677-1.01 0-1h-3.05zm.012 2c-.668.033-.617 1.035.05 1h5.961c.677.01.677-1.01 0-1H12.47zm-1.96 3a.483.483 0 0 0-.343.15L8.51 24.8l-.653-.647c-.472-.489-1.197.24-.705.71l1.004.997a.5.5 0 0 0 .705 0l2.008-1.996a.5.5 0 0 0-.36-.86zm1.948 0c-.666.035-.615 1.033.05 1h3c.677.01.677-1.01 0-1h-3.05zm.012 2c-.668.033-.617 1.035.05 1h5.961c.677.01.677-1.01 0-1H12.47zm15.158 1.994h.744v1h-.744v-1z" color="#000" enable-background="accumulate" font-family="sans-serif" font-weight="400" overflow="visible" style="line-height:normal;text-indent:0;text-align:start;text-decoration-line:none;text-decoration-style:solid;text-decoration-color:#000;text-transform:none;block-progression:tb;white-space:normal;isolation:auto;mix-blend-mode:normal;solid-color:#000;solid-opacity:1" fill="#40A8E2" class="color000000 svgShape"/></svg>