<svg xmlns="http://www.w3.org/2000/svg" viewBox="0 0 32 32"><path style="line-height:normal;text-indent:0;text-align:start;text-decoration-line:none;text-decoration-style:solid;text-decoration-color:#000;text-transform:none;block-progression:tb;white-space:normal;isolation:auto;mix-blend-mode:normal;solid-color:#000;solid-opacity:1" fill="#40A8E2" d="M3.451 5C2.657 5 2 5.652 2 6.445V24.102h.006c-.59.17-1.006.75-1.006 1.398 0 .773.589 1.453 1.361 1.453H30.64c.772 0 1.361-.68 1.361-1.453 0-.65-.418-1.228-1.008-1.398H31V6.445C31 5.652 30.341 5 29.547 5H3.45zm0 1h26.096c.263 0 .453.192.453.445v17.602H18.965l-.106.336c-.065.209-.205.314-.37.314h-3.975c-.168 0-.308-.105-.373-.314l-.106-.336H3V6.445C3 6.191 3.187 6 3.451 6zM4 7v16h25V7H4zm1.033 1.033h22.934v13.934H5.033V8.033zM9.498 9c-.416 0-.816.083-1.193.22l-.098.026.002.01a3.5 3.5 0 0 0-1.943 1.906 3.506 3.506 0 0 0 .757 3.815c1 .999 2.51 1.3 3.815.76a3.504 3.504 0 0 0 2.137-2.919c0-.008 0-.015.002-.023.008-.098.021-.195.021-.295h-.006c.025-.924-.342-1.8-1.017-2.475h-.002a3.412 3.412 0 0 0-2.475-1.017V9zM24 9v12h3V9h-3zm.967.967h1.066v10.066h-1.066V9.967zm-15.16.088a1.11 1.11 0 0 1 .375.033v-.006c.395.11.762.33 1.084.65.527.528.7 1.14.656 1.807l-.936-.174c.018-.779-.73-1.37-1.361-1.351l-.207-.926c.129-.008.26-.026.389-.033zm-1.377.185.183.819c-.299.183-.545.453-.685.79a1.704 1.704 0 0 0 .369 1.854h.002a1.7 1.7 0 0 0 1.85.367c.341-.141.61-.393.794-.697l.83.156a2.498 2.498 0 0 1-1.316 1.284 2.505 2.505 0 0 1-2.725-.543 2.505 2.505 0 0 1-.543-2.725 2.508 2.508 0 0 1 1.24-1.305zm.888 1.586a.707.707 0 0 1 .674.184c.174.175.24.416.182.654-.003.013-.002.028-.006.041v.002a.685.685 0 0 1-.4.44.687.687 0 0 1-.764-.153.689.689 0 0 1-.152-.764.686.686 0 0 1 .412-.39l.054-.014zM20 13v8h3v-8h-3zm1 1h1v6h-1v-6zm-5 1v6h3v-6h-3zm-4 1v5h3v-5h-3zm5 0h1v4h-1v-4zm-4 1h1v3h-1v-3zm-7 1v1h1v-1H6zm2 0v1h3v-1H8zm-2 2v1h1v-1H6zm2 0v1h3v-1H8zm-5.639 5.004h11.096c.242.363.593.65 1.057.65h3.974c.463 0 .813-.287 1.055-.65h11.096c.204 0 .404.19.404.496 0 .307-.2.498-.404.498H2.36c-.206 0-.404-.19-.404-.498s.197-.496.404-.496z" class="color000000 svgShape" color="#000" font-family="sans-serif" font-weight="400" overflow="visible"/></svg>