<svg xmlns="http://www.w3.org/2000/svg" data-name="Layer 1" viewBox="0 0 32 32"><path fill="#1B3142" d="M22.5,18H19V16.9a30.608,30.608,0,0,0,3.163-.713A28.419,28.419,0,0,0,25.635,15a.5.5,0,0,0,.1-.863,8.912,8.912,0,0,1-1.794-1.765A9.014,9.014,0,0,1,22.5,9.614,1.487,1.487,0,0,0,22,7.092V7a5.962,5.962,0,0,0-1.757-4.244A5.656,5.656,0,0,0,19,1.828V1.25A1.251,1.251,0,0,0,17.75,0h-3.5A1.251,1.251,0,0,0,13,1.25v.577A5.937,5.937,0,0,0,10,7v.092a1.491,1.491,0,0,0-.539,2.486A9.133,9.133,0,0,1,8,12.375a9.2,9.2,0,0,1-1.8,1.764A.5.5,0,0,0,6.308,15a29.341,29.341,0,0,0,3.541,1.207A29.058,29.058,0,0,0,13,16.916V18H9.5A5.507,5.507,0,0,0,4,23.5v8a.5.5,0,0,0,.5.5h23a.5.5,0,0,0,.5-.5v-8A5.507,5.507,0,0,0,22.5,18Zm-.89,1v3.06a2.467,2.467,0,0,0,.718,1.726l.793.782A1.476,1.476,0,0,1,23.41,25H16.5V20.949A2.994,2.994,0,0,0,18.816,19ZM8.452,26H15.5v2H8.452ZM18.844,15l-2.012,1.341a1.5,1.5,0,0,1-1.664,0L13.156,15a3.477,3.477,0,0,1-1.491-2.226L11.109,10h9.781l-.556,2.777A3.477,3.477,0,0,1,18.844,15ZM14,18V16.768l.613.409a2.492,2.492,0,0,0,2.773,0L18,16.767V18a2,2,0,0,1-4,0Zm2.5,8h7.048v2H16.5Zm7.964-11.608c-.68.258-1.568.562-2.655.86-.715.192-1.5.4-2.4.572a4.466,4.466,0,0,0,1.9-2.85l.473-2.368a9.986,9.986,0,0,0,1.363,2.376A9.768,9.768,0,0,0,24.464,14.392ZM13,3.014V4.5a.5.5,0,0,0,1,0V1.25A.25.25,0,0,1,14.25,1h3.5a.25.25,0,0,1,.25.25V4.5a.5.5,0,0,0,1,0V3.006A4.908,4.908,0,0,1,21,7H11A4.946,4.946,0,0,1,13,3.014ZM10.5,8h11a.5.5,0,0,1,0,1h-11a.5.5,0,0,1,0-1ZM7.479,14.391A10.141,10.141,0,0,0,8.8,12.985a10.143,10.143,0,0,0,1.4-2.467l.491,2.456A4.468,4.468,0,0,0,12.6,15.835l.007,0c-.939-.175-1.769-.4-2.556-.612C9.165,14.984,8.3,14.7,7.479,14.391ZM13.184,19A2.993,2.993,0,0,0,15.5,20.949V25H8.585a1.479,1.479,0,0,1,.286-.425l.808-.8a2.462,2.462,0,0,0,.711-1.719V19ZM5,23.5a4.5,4.5,0,0,1,4.39-4.489V22.06a1.462,1.462,0,0,1-.421,1.015l-.809.8a2.458,2.458,0,0,0-.693,1.554.472.472,0,0,0-.015.074v.068l0,.022V31H5ZM8.445,29H15.5v2H8.45ZM16.5,31V29h7.05v2ZM27,31H24.55V25.59l0-.022V25.5a.473.473,0,0,0-.015-.074,2.464,2.464,0,0,0-.7-1.562l-.794-.783a1.468,1.468,0,0,1-.428-1.021V19.011A4.5,4.5,0,0,1,27,23.5Z" class="color000000 svgShape"/></svg>