<svg xmlns="http://www.w3.org/2000/svg" enable-background="new 0 0 64 64" viewBox="0 0 64 64"><path fill="#40A8E2" d="M38.942,11.505c-3.664-3.665-8.535-5.683-13.718-5.683c-5.182,0-10.054,2.018-13.717,5.683
		C6.28,16.733,4.671,24.225,6.669,30.852c0.01,0.056,0.036,0.106,0.056,0.16c0.902,2.902,2.489,5.635,4.783,7.929
		c3.663,3.664,8.535,5.682,13.717,5.682c5.183,0,10.054-2.018,13.718-5.682c3.665-3.664,5.683-8.536,5.683-13.717
		C44.625,20.041,42.607,15.169,38.942,11.505z M12.879,12.876c3.297-3.298,7.682-5.114,12.346-5.114
		c4.665,0,9.049,1.816,12.347,5.114c0.044,0.044,0.081,0.093,0.124,0.137l-4.297,1.354c-0.522-0.68-1.334-1.125-2.256-1.125
		c-1.572,0-2.852,1.279-2.852,2.852c0,0.899,0.426,1.692,1.077,2.215l-3.23,8.788c-0.17-0.032-0.345-0.053-0.524-0.053
		c-0.465,0-0.897,0.123-1.285,0.32L17.9,22.006c0.003-0.051,0.016-0.1,0.016-0.151c0-1.572-1.279-2.852-2.853-2.852
		s-2.853,1.279-2.853,2.852c0,0.079,0.018,0.153,0.023,0.23l-4.18,6.217C7.089,22.87,8.689,17.065,12.879,12.876z M31.143,17.006
		c-0.503,0-0.912-0.41-0.912-0.913s0.409-0.913,0.912-0.913c0.504,0,0.913,0.409,0.913,0.913S31.646,17.006,31.143,17.006z
		 M25.613,28.982c0.149,0,0.283,0.044,0.407,0.107c0.037,0.035,0.085,0.056,0.127,0.086c0.225,0.167,0.379,0.42,0.379,0.72
		c0,0.503-0.409,0.912-0.913,0.912S24.7,30.398,24.7,29.896C24.7,29.392,25.109,28.982,25.613,28.982z M14.15,21.854
		c0-0.503,0.409-0.912,0.913-0.912s0.913,0.409,0.913,0.912s-0.409,0.913-0.913,0.913S14.15,22.358,14.15,21.854z M37.571,37.569
		c-3.298,3.298-7.682,5.114-12.347,5.114c-4.664,0-9.049-1.816-12.346-5.114c-1.964-1.964-3.343-4.288-4.173-6.757l4.55-6.77
		c0.493,0.409,1.118,0.665,1.808,0.665c0.793,0,1.51-0.326,2.027-0.85l5.901,4.918c-0.147,0.344-0.23,0.723-0.23,1.121
		c0,1.572,1.279,2.852,2.852,2.852c1.573,0,2.853-1.279,2.853-2.852c0-0.675-0.245-1.287-0.639-1.776l3.375-9.18
		c1.503-0.031,2.716-1.229,2.78-2.723l5.09-1.603c2.334,3.033,3.613,6.719,3.613,10.609C42.686,29.886,40.869,34.271,37.571,37.569z
		" class="color010101 svgShape"/><path fill="#40A8E2" d="M60.893,51.342L46.629,38.558c5.008-8.039,5.067-18.301,0.175-26.39l7.979-2.515l-0.611,1.077
		c-0.264,0.466-0.1,1.058,0.366,1.322c0.15,0.085,0.315,0.126,0.478,0.126c0.338,0,0.665-0.177,0.844-0.492l1.832-3.229
		c0.012-0.021,0.012-0.046,0.021-0.068c0.024-0.051,0.036-0.104,0.051-0.158c0.02-0.072,0.039-0.142,0.041-0.216
		c0.002-0.043-0.008-0.083-0.013-0.125c-0.006-0.068,0.001-0.136-0.021-0.202c-0.006-0.021-0.022-0.035-0.03-0.055
		c-0.008-0.019-0.021-0.034-0.03-0.053c-0.047-0.103-0.104-0.197-0.185-0.276c-0.001-0.001-0.001-0.002-0.002-0.003
		c-0.035-0.036-0.077-0.058-0.116-0.087c-0.05-0.036-0.089-0.083-0.145-0.11l-3.354-1.591c-0.485-0.23-1.063-0.023-1.292,0.46
		c-0.229,0.484-0.023,1.062,0.461,1.292l1.131,0.537l-8.517,2.684c-0.782-1.084-1.656-2.122-2.631-3.097
		C38.296,2.624,31.963,0,25.226,0C18.487,0,12.154,2.624,7.39,7.388c-4.764,4.764-7.387,11.098-7.387,17.835
		c0,3.979,0.922,7.814,2.652,11.271l-2.141,2.814c-0.324,0.426-0.242,1.035,0.185,1.359c0.175,0.134,0.381,0.198,0.586,0.198
		c0.292,0,0.582-0.132,0.772-0.383l1.623-2.133c1.034,1.69,2.272,3.272,3.709,4.708c4.918,4.917,11.377,7.375,17.836,7.375
		c4.637,0,9.271-1.274,13.337-3.808l12.791,14.263c1.735,1.945,3.852,3.049,5.959,3.108C57.372,63.999,57.431,64,57.489,64
		c1.679,0,3.243-0.679,4.534-1.971c1.34-1.339,2.021-2.975,1.972-4.727C63.935,55.189,62.832,53.072,60.893,51.342z M8.762,41.687
		c-1.658-1.658-3.034-3.521-4.106-5.533c-0.011-0.021-0.019-0.042-0.031-0.063c-1.751-3.31-2.682-7.017-2.682-10.867
		c0-6.219,2.421-12.066,6.819-16.464c4.397-4.397,10.245-6.819,16.464-6.819s12.066,2.422,16.464,6.819
		c9.077,9.078,9.077,23.849,0,32.928C32.609,50.764,17.839,50.764,8.762,41.687z M60.652,60.658c-0.963,0.963-2.049,1.444-3.285,1.4
		c-1.545-0.044-3.21-0.941-4.569-2.463L40.186,45.531c1.004-0.741,1.966-1.564,2.875-2.474s1.733-1.872,2.475-2.877l14.065,12.607
		c1.517,1.353,2.412,3.019,2.455,4.57C62.091,58.581,61.618,59.691,60.652,60.658z" class="color010101 svgShape"/></svg>