<svg xmlns="http://www.w3.org/2000/svg" viewBox="0 0 512 512"><path fill="#1B3142" d="M317 147.4c-.7 0-1.5-.1-2.2-.4-1.2-.4-29.8-10.4-29.8-48.4 0-36.2 26.3-59.7 27.4-60.7 2.6-2.3 6.5-2.3 9.1 0 1.1 1 27.4 24.5 27.4 60.7 0 38-28.6 47.9-29.8 48.4-.6.3-1.4.4-2.1.4zm0-94.2c-6.6 7.7-18.2 24.2-18.2 45.5 0 22.5 12.9 31.5 18.2 34.3 5.3-2.7 18.2-11.7 18.2-34.3 0-21.4-11.5-37.8-18.2-45.5z" class="color111111 svgShape"/><path fill="#1B3142" d="M269.1 142.8c-8 0-23.6-2.7-34.5-21.7-14.1-24.4-5.5-50.5-5.1-51.6 1.1-3.3 4.5-5.2 7.9-4.6 1.1.2 28 5.9 42.1 30.2 15 26-.8 44.2-1.4 45-1 1.1-2.3 1.9-3.8 2.2-.3.1-2.2.5-5.2.5zm-28-62.3c-1.2 7.8-1.7 21.2 5.5 33.7 7.6 13.2 17.9 14.8 22.5 14.8 2.3-4 6.1-13.8-1.5-26.9-7.2-12.4-19.2-18.7-26.5-21.6z" class="color111111 svgShape"/><path fill="#1B3142" d="M272.9 142.5c-2.4 0-4.7-1.2-6-3.4l-20.6-35.7c-1.9-3.3-.8-7.5 2.5-9.4 3.3-1.9 7.5-.8 9.4 2.5l20.6 35.7c1.9 3.3.8 7.5-2.5 9.4-1.1.6-2.2.9-3.4.9zm92.2.3c-2.9 0-4.9-.4-5.1-.4-1.5-.3-2.8-1.1-3.8-2.2-.7-.8-16.4-19-1.4-45 14.1-24.4 41-30 42.1-30.2 3.4-.7 6.8 1.3 7.9 4.6.4 1.1 8.9 27.2-5.1 51.6-11 18.9-26.6 21.6-34.6 21.6zm28.1-62.3c-7.4 2.9-19.3 9.1-26.4 21.6-7.6 13.1-3.9 22.8-1.5 26.9 4.6 0 14.9-1.7 22.5-14.8 7.1-12.4 6.6-25.9 5.4-33.7z" class="color111111 svgShape"/><path fill="#1B3142" d="M361.4 142.5c-1.2 0-2.4-.3-3.4-.9-3.3-1.9-4.4-6.1-2.5-9.4L376 96.5c1.9-3.3 6.1-4.4 9.4-2.5 3.3 1.9 4.4 6.1 2.5 9.4L367.3 139c-1.2 2.3-3.6 3.5-5.9 3.5zM317 147c-3.8 0-7-3.1-7-6.9v-69c0-3.8 3.2-6.9 7-6.9s7 3.1 7 6.9v69c0 3.9-3.2 6.9-7 6.9zM80.2 87.1c-1.8 0-3.5-.7-4.9-2-2.7-2.7-2.7-7.1 0-9.8C123.6 27 187.7.4 256 .4c41.2 0 82.1 10 118.3 29 3.4 1.8 4.7 5.9 2.9 9.3-1.8 3.4-5.9 4.7-9.3 2.9-34.3-17.9-73-27.4-111.9-27.4-64.6 0-125.3 25.2-171 70.8-1.3 1.4-3.1 2.1-4.8 2.1z" class="color111111 svgShape"/><path fill="#1B3142" d="M163.6 86H79.9c-2.2 0-4.2-.8-5.5-2.6-1.3-1.7-1.7-3.9-1.1-5.9L93.8 5c1-3.7 4.9-5.8 8.5-4.7 3.7 1 5.8 5.1 4.8 8.7L89 73h74.6c3.8 0 6.9 2.7 6.9 6.5s-3.1 6.5-6.9 6.5zM80.2 438.7c-1.8 0-3.5-.7-4.9-2C27 388.4.4 324.3.4 256c0-41.2 10-82.1 29-118.3 1.8-3.4 5.9-4.7 9.3-2.9 3.4 1.8 4.7 5.9 2.9 9.3-17.9 34.3-27.4 73-27.4 111.9 0 64.6 25.2 125.3 70.8 171 2.7 2.7 2.7 7.1 0 9.8-1.3 1.3-3.1 1.9-4.8 1.9z" class="color111111 svgShape"/><path fill="#1B3142" d="M79.5 439c-.6 0-1.3-.1-1.9-.3L5 418.2c-3.7-1-5.8-4.9-4.8-8.5 1-3.7 5.1-5.8 8.7-4.8L73 423v-74.6c0-3.8 2.7-6.9 6.5-6.9s6.5 3.1 6.5 6.9v83.7c0 2.2-.8 4.2-2.6 5.5-1.2.9-2.4 1.4-3.9 1.4zM256 511.6c-41.2 0-82.1-10-118.3-29-3.4-1.8-4.7-5.9-2.9-9.3s5.9-4.7 9.3-2.9c34.3 17.9 73 27.4 111.9 27.4 64.6 0 125.3-25.2 171-70.8 2.7-2.7 7.1-2.7 9.8 0 2.7 2.7 2.7 7.1 0 9.8-48.4 48.2-112.5 74.8-180.8 74.8z" class="color111111 svgShape"/><path fill="#1B3142" d="M411.5 512c-.6 0-1.3-.1-1.9-.3-3.7-1-5.8-5.1-4.8-8.7l18.1-64h-74.6c-3.8 0-6.9-2.7-6.9-6.5s3.1-6.5 6.9-6.5H432c2.2 0 4.2.8 5.5 2.6 1.3 1.7 1.7 3.9 1.1 5.9L418.2 507c-.9 3.1-3.7 5-6.7 5zm65-134c-1.1 0-2.2-.3-3.2-.8-3.4-1.8-4.7-5.9-2.9-9.3 17.9-34.3 27.4-73 27.4-111.9 0-64.6-25.2-125.3-70.8-171-2.7-2.7-2.7-7.1 0-9.8 2.7-2.7 7.1-2.7 9.8 0 48.3 48.3 74.9 112.5 74.9 180.7 0 41.2-10 82.1-29 118.3-1.3 2.4-3.7 3.8-6.2 3.8z" class="color111111 svgShape"/><path fill="#1B3142" d="M432.5 170.5c-3.8 0-6.5-3.1-6.5-6.9V79.9c0-2.2.8-4.2 2.6-5.5 1.7-1.3 3.9-1.7 5.9-1.1L507 93.8c3.7 1 5.8 4.9 4.7 8.5-1 3.7-5.1 5.8-8.7 4.8L439 89v74.6c0 3.8-2.7 6.9-6.5 6.9zM208.7 397.2H104.8c-3.8 0-6.9-3.1-6.9-6.9v-117c0-3.8 3.1-6.9 6.9-6.9h103.9c3.8 0 6.9 3.1 6.9 6.9v117c-.1 3.8-3.1 6.9-6.9 6.9zm-97.1-13.8h90.1V280.1h-90.1v103.3z" class="color111111 svgShape"/><path fill="#1B3142" d="M208.7 280.1H104.8c-3.8 0-6.9-3.1-6.9-6.9v-51.7c0-3.8 3.1-6.9 6.9-6.9h24.4c3.8 0 6.9 3.1 6.9 6.9 0 3.8-3.1 6.9-6.9 6.9h-17.5v37.9h90.1v-37.9h-16.2c-3.8 0-6.9-3.1-6.9-6.9 0-3.8 3.1-6.9 6.9-6.9h23.1c3.8 0 6.9 3.1 6.9 6.9v51.7c-.1 3.8-3.1 6.9-6.9 6.9zm-35-127.5h-34c-3.8 0-6.9-3.1-6.9-6.9v-29.2c0-3.8 3.1-6.9 6.9-6.9h34c3.8 0 6.9 3.1 6.9 6.9v29.2c0 3.8-3.1 6.9-6.9 6.9zm-27.1-13.8h20.2v-15.4h-20.2v15.4z" class="color111111 svgShape"/><path fill="#1B3142" d="M208.7 228.4c-3.8 0-6.9-3.1-6.9-6.9v-23.9c0-24.8-20.2-45.1-45.1-45.1s-45.1 20.2-45.1 45.1v23.9c0 3.8-3.1 6.9-6.9 6.9s-6.9-3.1-6.9-6.9v-23.9c0-32.4 26.4-58.8 58.8-58.8s58.8 26.4 58.8 58.8v23.9c.1 3.8-2.9 6.9-6.7 6.9zM389.8 397H256c-3.8 0-7-3.4-7-7.2v-222c0-3.8 3.2-6.7 7-6.7h29c3.8 0 7 2.9 7 6.7v50.6c0 17 13.9 30.8 31 30.8s31-13.8 31-30.8v-50.6c0-3.8 3-6.7 6.8-6.7h29c3.8 0 7.2 2.9 7.2 6.7V256c0 3.8-3.2 6.9-7 6.9s-7-3.1-7-6.9v-81h-15v43.3c0 24.6-20.3 44.6-45 44.6s-45-20-45-44.6V175h-15v208h120v-71.8c0-3.8 3.2-6.9 7-6.9s7 3.1 7 6.9v78.6c0 3.8-3.4 7.2-7.2 7.2z" class="color111111 svgShape"/><circle cx="157.2" cy="222" r="6.9" fill="#1B3142" class="color111111 svgShape"/><circle cx="390.2" cy="284" r="6.9" fill="#1B3142" class="color111111 svgShape"/></svg>