<svg xmlns="http://www.w3.org/2000/svg" viewBox="0 0 64 64"><g fill="#1B3142" class="color000000 svgShape" data-name="No plastic Bag-Pollution-Ban-Plastic-Bag"><path d="M52 2h-8a1 1 0 0 0-1 1v12a1 1 0 0 1-1 1H23c-.82 0-1.957-.68-2-1V3a1 1 0 0 0-1-1h-8a1 1 0 0 0-1 1v54a5.006 5.006 0 0 0 5 5h32a5.006 5.006 0 0 0 5-5V3a1 1 0 0 0-1-1Zm-1 2v3h-6V4ZM19 4v3h-6V4Zm29 56H16a3 3 0 0 1-3-3V9h6v6c0 1.8 2.408 3 4 3h19a3 3 0 0 0 3-3V9h6v48a3 3 0 0 1-3 3Z" class="color000000 svgShape"/><path d="M32 24a15 15 0 1 0 15 15 15.017 15.017 0 0 0-15-15Zm0 28a13 13 0 1 1 13-13 13.015 13.015 0 0 1-13 13Z" class="color000000 svgShape"/><path d="M32 28a10.907 10.907 0 0 0-6.063 1.828 1 1 0 0 0-.154 1.539l13.85 13.85a1 1 0 0 0 .707.293h.1a1 1 0 0 0 .733-.442A10.993 10.993 0 0 0 32 28zm8.121 14.877-12-12a9 9 0 0 1 12 12zM24.367 32.783a1 1 0 0 0-1.539.154 10.993 10.993 0 0 0 15.235 15.235 1 1 0 0 0 .154-1.539zM32 48a9 9 0 0 1-8.121-12.877l12 12A8.935 8.935 0 0 1 32 48z" class="color000000 svgShape"/></g></svg>