<svg xmlns="http://www.w3.org/2000/svg" fill-rule="evenodd" stroke-linejoin="round" stroke-miterlimit="2" clip-rule="evenodd" viewBox="0 0 100 101"><path fill="#40A8E2" d="M17.184,22.179c1.91,-2.843 4.141,-5.46 6.652,-7.798c1.231,-1.146 3.056,-1.38 4.535,-0.58l7.411,4.004c2.259,-1.43 4.676,-2.594 7.203,-3.468l1.489,-8.291c0.298,-1.655 1.618,-2.936 3.281,-3.184c4.371,-0.651 8.815,-0.651 13.186,0c1.663,0.248 2.983,1.529 3.281,3.184l1.489,8.291c2.527,0.874 4.944,2.038 7.203,3.468l7.411,-4.004c1.479,-0.8 3.304,-0.566 4.535,0.58c3.234,3.012 6.004,6.486 8.221,10.309c0.843,1.455 0.665,3.286 -0.444,4.55l-5.553,6.334c0.892,2.521 1.489,5.136 1.779,7.794l7.751,3.297c1.548,0.658 2.503,2.231 2.374,3.907c-0.338,4.407 -1.327,8.739 -2.934,12.855c-0.611,1.567 -2.154,2.569 -3.834,2.491l-8.414,-0.393c-1.415,2.269 -3.087,4.366 -4.985,6.25l2.255,8.116c0.451,1.621 -0.183,3.348 -1.574,4.293c-0.062,0.042 -0.125,0.084 -0.187,0.126l7.625,7.625c1.121,1.121 1.456,2.807 0.85,4.272c-0.607,1.464 -2.036,2.419 -3.622,2.419l-79.248,0c-2.165,0 -3.92,-1.755 -3.92,-3.92l0,-79.248c0,-1.585 0.955,-3.014 2.42,-3.621c1.465,-0.607 3.151,-0.272 4.272,0.85l9.492,9.492Zm-12.264,13.751l3.69,0c1.082,0 1.96,0.878 1.96,1.96c0,1.082 -0.878,1.96 -1.96,1.96l-3.69,0l0,14.203l3.69,0c1.082,0 1.96,0.878 1.96,1.96c0,1.082 -0.878,1.96 -1.96,1.96l-3.69,0l0,14.203l3.69,0c1.082,0 1.96,0.879 1.96,1.96c0,1.082 -0.878,1.96 -1.96,1.96l-3.69,0l0,18.61l18.695,0l0,-3.69c0,-1.082 0.879,-1.96 1.96,-1.96c1.082,0 1.96,0.878 1.96,1.96l0,3.69l14.204,0l0,-3.69c0,-1.082 0.878,-1.96 1.96,-1.96c1.081,0 1.96,0.878 1.96,1.96l0,3.69l14.203,0l0,-3.69c0,-1.082 0.878,-1.96 1.96,-1.96c1.082,0 1.96,0.878 1.96,1.96l0,3.69l20.386,0l-79.248,-79.248l0,20.472Zm19.007,13.892c-1.121,-1.121 -2.807,-1.456 -4.272,-0.849c-1.465,0.606 -2.42,2.036 -2.42,3.621l0,25.877c0,2.165 1.755,3.92 3.92,3.92l25.877,0c1.586,0 3.015,-0.955 3.622,-2.42c0.607,-1.465 0.271,-3.151 -0.85,-4.272l-25.877,-25.877Zm52.558,31.658c0.274,-0.177 0.545,-0.356 0.814,-0.539l-2.894,-10.418c2.946,-2.528 5.388,-5.59 7.197,-9.025l10.801,0.504c1.466,-3.756 2.368,-7.709 2.677,-11.73l-9.95,-4.232c-0.139,-3.88 -1.011,-7.698 -2.568,-11.254l7.128,-8.13c-2.023,-3.489 -4.551,-6.658 -7.502,-9.406l-9.512,5.14c-3.12,-2.31 -6.649,-4.009 -10.4,-5.009l-1.913,-10.642c-3.988,-0.593 -8.042,-0.593 -12.031,0l-1.912,10.642c-3.751,1 -7.28,2.699 -10.4,5.009l-9.512,-5.14c-2.48,2.309 -4.661,4.915 -6.494,7.759l17.822,17.822c1.989,-7.25 8.632,-12.585 16.512,-12.585c9.449,0 17.12,7.671 17.12,17.119c0,7.88 -5.335,14.523 -12.586,16.512l17.603,17.603Zm-55.33,-28.886l0,25.877l25.877,0l-25.877,-25.877Zm34.364,7.92c6.738,-0.594 12.029,-6.258 12.029,-13.149c0,-7.285 -5.915,-13.199 -13.2,-13.199c-6.89,0 -12.555,5.291 -13.148,12.028l14.319,14.32Z" class="color000000 svgShape"/></svg>