<svg xmlns="http://www.w3.org/2000/svg" data-name="Layer 1" viewBox="0 0 32 32"><path fill="#1B3142" d="M30.683,11.976l-1.659-1.649A3.525,3.525,0,0,1,28,7.85V2.5A2.5,2.5,0,0,0,25.5,0H21.94a.5.5,0,0,0-.27.079A5.051,5.051,0,0,1,19.1.88a4.958,4.958,0,0,1-2.823-.8A.5.5,0,0,0,16,0H12.5A2.5,2.5,0,0,0,10,2.5V7.85a3.524,3.524,0,0,1-1.022,2.476L7.316,11.977A4.532,4.532,0,0,0,6,15.16V20H5.98a1.393,1.393,0,0,0-1.36,1.42v.361A5.971,5.971,0,0,0,1.15,27.22V28.6A1.5,1.5,0,0,0,0,30.06v.44A1.5,1.5,0,0,0,1.5,32h30a.5.5,0,0,0,.5-.5V15.16A4.533,4.533,0,0,0,30.683,11.976ZM2.15,27.22a4.971,4.971,0,0,1,2.47-4.31v2.48a.5.5,0,0,0,1,0V21.42A.389.389,0,0,1,5.98,21H10.02a.389.389,0,0,1,.36.42v3.97a.5.5,0,0,0,1,0v-2.48a4.971,4.971,0,0,1,2.47,4.31v1.34H2.15ZM6.5,31h-5a.5.5,0,0,1-.5-.5v-.44a.5.5,0,0,1,.5-.5h13a.5.5,0,0,1,.5.5v.44a.5.5,0,0,1-.5.5Zm12,0H15.908A1.483,1.483,0,0,0,16,30.5v-.44A1.5,1.5,0,0,0,14.85,28.6V28H18.5Zm0-4H14.834a5.987,5.987,0,0,0-.42-2H18.5Zm0-3H13.916a5.992,5.992,0,0,0-2.537-2.219V21.42a1.456,1.456,0,0,0-.068-.42H18.5Zm0-4H7V18H18.5Zm0-3H7V15.16a3.524,3.524,0,0,1,1.022-2.476l1.661-1.651A4.532,4.532,0,0,0,11,7.85V2.5A1.5,1.5,0,0,1,12.5,1h2.179L18.5,12.829ZM15.73,1h.125a6.119,6.119,0,0,0,3.271.88A6.052,6.052,0,0,0,22.083,1h.181L19,11.122ZM31,31H19.5V28H31Zm0-4H19.5V25H31Zm0-3H19.5V21H31Zm0-4H19.5V18H31Zm0-3H19.5V12.828L23.314,1H25.5A1.5,1.5,0,0,1,27,2.5V7.85a4.533,4.533,0,0,0,1.317,3.185l1.659,1.649A3.525,3.525,0,0,1,31,15.16Z" class="color000000 svgShape"/></svg>